<?xml version="1.0" standalone="no"?>
<!DOCTYPE svg PUBLIC "-//W3C//DTD SVG 20010904//EN"
 "http://www.w3.org/TR/2001/REC-SVG-20010904/DTD/svg10.dtd">
<svg version="1.0" xmlns="http://www.w3.org/2000/svg"
 width="512.000000pt" height="512.000000pt" viewBox="0 0 512.000000 512.000000"
 preserveAspectRatio="xMidYMid meet">

<g transform="translate(0.000000,512.000000) scale(0.100000,-0.100000)"
fill="#000000" stroke="none">
<path d="M1495 4947 c-22 -8 -57 -24 -78 -38 -49 -32 -266 -290 -283 -337 -34
-95 -19 -129 165 -357 l159 -198 -53 -52 c-55 -54 -85 -120 -85 -190 0 -45 27
-128 51 -159 12 -15 20 -28 18 -30 -63 -44 -200 -157 -256 -211 -82 -79 -91
-108 -48 -150 40 -41 65 -33 160 53 48 42 130 110 183 150 l97 72 408 0 408 0
60 -41 c161 -109 388 -330 522 -507 192 -255 336 -554 412 -850 59 -237 67
-315 74 -772 l6 -425 26 -56 c33 -70 88 -132 148 -166 94 -54 131 -105 131
-183 0 -76 -37 -138 -102 -171 -36 -18 -88 -19 -1686 -19 l-1648 0 -45 29
c-129 81 -113 263 30 335 58 30 135 111 163 173 21 46 22 66 29 468 8 481 18
576 91 840 66 241 164 452 315 679 53 79 93 149 93 163 0 30 -42 73 -70 73
-40 0 -59 -20 -151 -158 -207 -308 -341 -656 -401 -1035 -17 -112 -21 -190
-24 -522 -3 -218 -9 -406 -14 -427 -14 -50 -51 -91 -114 -128 -66 -37 -131
-106 -159 -168 -33 -72 -31 -198 4 -273 36 -76 90 -133 157 -166 l57 -28 2361
-3 2361 -2 44 23 c24 13 58 43 74 66 l30 43 0 203 0 203 -30 44 c-52 73 -90
88 -227 88 l-118 0 0 190 0 190 109 0 c100 0 113 2 162 28 43 22 59 38 81 81
28 52 28 56 28 227 0 194 -7 224 -63 282 -42 44 -109 62 -224 62 l-93 0 0 180
c0 140 -3 189 -15 218 -20 47 -50 79 -97 103 -35 18 -67 19 -636 19 l-599 0
-18 48 c-29 78 -138 291 -200 392 -137 221 -368 481 -570 642 -55 44 -104 84
-108 88 -4 4 5 31 20 61 24 45 28 65 28 134 -1 96 -21 143 -88 201 l-44 39
146 180 c178 220 194 249 188 329 -6 68 -10 74 -159 249 -127 149 -176 179
-293 185 -106 6 -171 -23 -257 -110 -59 -60 -71 -68 -104 -68 -33 0 -44 7 -93
61 -75 82 -134 111 -231 116 -44 1 -91 -3 -115 -10z m171 -153 c19 -9 53 -39
76 -67 71 -85 169 -115 272 -85 29 8 62 33 110 81 37 38 79 73 93 78 38 14
105 10 141 -10 43 -22 242 -258 242 -285 0 -12 -77 -116 -178 -241 l-178 -220
-306 -3 -305 -2 -182 225 c-99 124 -181 232 -181 240 0 27 197 257 245 287 37
22 106 23 151 2z m695 -932 c61 -55 48 -161 -25 -196 -32 -15 -77 -16 -415
-14 l-380 3 -30 29 c-56 54 -50 149 13 187 29 18 54 19 418 19 l388 0 31 -28z
m1439 -1787 l0 -185 -134 0 -133 0 -17 88 c-10 48 -28 128 -42 178 -13 51 -24
94 -24 98 0 3 79 6 175 6 l175 0 0 -185z m370 0 l0 -185 -110 0 -110 0 0 185
0 185 110 0 110 0 0 -185z m408 173 c17 -17 17 -329 0 -346 -8 -8 -53 -12
-135 -12 l-123 0 0 185 0 185 123 0 c82 0 127 -4 135 -12z m-780 -700 l2 -188
-120 0 -120 0 0 144 c0 79 -3 164 -6 190 l-7 47 124 -3 124 -3 3 -187z m372 2
l0 -190 -110 0 -110 0 0 190 0 190 110 0 110 0 0 -190z m380 0 l0 -190 -115 0
-115 0 0 183 c0 101 3 187 7 190 3 4 55 7 115 7 l108 0 0 -190z m398 174 c21
-15 22 -21 22 -171 0 -202 7 -193 -152 -193 l-118 0 0 190 0 190 113 0 c86 0
118 -4 135 -16z m-1150 -701 l-3 -188 -82 -3 -81 -3 -25 33 c-37 48 -47 99
-47 231 l0 117 120 0 120 0 -2 -187z m372 -3 l0 -190 -110 0 -110 0 0 190 0
190 110 0 110 0 0 -190z m404 174 c13 -13 16 -43 16 -174 0 -199 5 -192 -156
-188 l-109 3 -3 188 -2 187 119 0 c95 0 123 -3 135 -16z m-404 -699 l0 -185
-174 0 -175 0 22 48 c32 69 32 219 -1 280 l-22 42 175 0 175 0 0 -185z m380 0
l0 -185 -115 0 -115 0 0 185 0 185 115 0 115 0 0 -185z m410 166 c5 -11 10
-85 10 -170 0 -123 -3 -152 -16 -165 -12 -13 -40 -16 -135 -16 l-119 0 0 185
0 185 125 0 c113 0 125 -2 135 -19z"/>
<path d="M1812 2770 c-410 -58 -737 -359 -829 -762 -25 -112 -23 -319 5 -432
27 -106 94 -253 156 -340 63 -88 199 -212 294 -270 94 -56 244 -110 352 -127
104 -16 295 -6 395 20 145 38 314 132 416 230 57 55 64 93 26 129 -38 36 -72
28 -144 -33 -245 -209 -572 -263 -862 -143 -373 155 -581 565 -485 955 55 225
221 436 425 538 125 63 227 88 369 88 189 1 310 -35 466 -139 181 -120 306
-306 350 -523 19 -98 15 -273 -9 -356 -40 -140 -41 -145 -31 -172 11 -32 49
-49 87 -39 87 21 145 374 99 596 -80 388 -373 684 -755 765 -88 19 -245 26
-325 15z"/>
<path d="M1910 2493 c-36 -13 -50 -36 -50 -83 l0 -47 -67 -34 c-111 -56 -172
-166 -160 -284 10 -99 61 -163 174 -222 l53 -28 -2 -195 -3 -195 -25 3 c-14 2
-52 17 -84 33 -59 30 -93 32 -123 8 -21 -18 -26 -68 -9 -94 21 -32 122 -83
192 -97 l54 -11 0 -48 c0 -55 26 -89 68 -89 51 0 82 42 82 114 0 29 6 34 70
64 81 38 136 99 169 187 61 161 -7 320 -168 394 l-71 33 0 149 c0 113 3 149
13 149 6 0 30 -12 52 -25 49 -30 65 -31 99 -4 36 28 36 76 -1 111 -31 28 -93
62 -134 71 -23 6 -27 13 -32 53 -7 62 -52 103 -97 87z m-50 -413 c0 -60 -3
-110 -7 -110 -5 0 -21 11 -38 24 -27 21 -30 30 -30 78 0 39 6 61 23 86 43 59
52 45 52 -78z m237 -410 c25 -36 30 -99 12 -147 -10 -28 -76 -103 -91 -103 -4
0 -8 72 -8 161 l0 161 32 -19 c18 -11 43 -34 55 -53z"/>
</g>
</svg>
