<?xml version="1.0" standalone="no"?>
<!DOCTYPE svg PUBLIC "-//W3C//DTD SVG 20010904//EN"
 "http://www.w3.org/TR/2001/REC-SVG-20010904/DTD/svg10.dtd">
<svg version="1.0" xmlns="http://www.w3.org/2000/svg"
 width="512.000000pt" height="512.000000pt" viewBox="0 0 512.000000 512.000000"
 preserveAspectRatio="xMidYMid meet">

<g transform="translate(0.000000,512.000000) scale(0.100000,-0.100000)"
fill="#000000" stroke="none">
<path d="M770 4678 c-77 -30 -169 -123 -198 -201 -21 -54 -22 -75 -22 -352 l0
-295 -98 0 c-119 0 -201 -14 -262 -45 -57 -29 -134 -110 -163 -172 l-22 -48
-3 -835 c-3 -833 -2 -836 18 -858 28 -30 82 -30 110 0 20 22 20 31 20 832 0
763 2 813 19 851 26 58 80 101 143 115 39 8 569 10 2008 8 l1955 -3 42 -24
c24 -14 55 -42 70 -64 l28 -40 3 -1031 2 -1031 -294 510 c-209 364 -307 523
-339 557 -117 119 -326 119 -446 -1 -36 -35 -153 -231 -511 -853 l-465 -808
-1023 0 c-1119 0 -1061 -3 -1126 58 -62 58 -66 79 -66 378 0 258 -1 271 -20
292 -28 30 -82 30 -110 -1 -21 -21 -21 -29 -18 -317 3 -280 4 -297 25 -343 32
-68 75 -120 131 -155 101 -65 54 -62 1163 -62 l1006 0 7 -48 c14 -110 97 -212
202 -252 47 -17 78 -20 224 -20 157 0 172 2 190 20 30 30 27 83 -6 109 -24 19
-40 21 -181 21 -183 0 -215 11 -259 85 -22 38 -26 54 -22 98 4 47 51 132 473
862 257 446 472 816 478 823 21 26 87 52 132 52 53 0 89 -16 126 -57 36 -39
941 -1609 953 -1653 13 -51 0 -105 -36 -146 -59 -67 -21 -64 -731 -64 -637 0
-645 0 -671 -21 -33 -26 -36 -79 -6 -109 20 -20 29 -21 693 -18 l672 3 49 24
c66 33 122 91 154 160 22 45 27 71 27 131 0 92 -4 102 -127 316 l-98 171 0
196 0 196 143 3 c129 3 147 5 198 29 79 37 133 90 171 167 l33 67 0 1275 0
1275 -27 57 c-35 75 -94 138 -165 174 l-58 29 -344 3 c-391 3 -391 3 -391 -68
0 -30 6 -43 26 -59 26 -20 38 -21 343 -21 309 0 318 -1 361 -22 26 -14 57 -41
75 -66 28 -41 30 -50 33 -153 l4 -109 -2136 0 -2136 0 0 100 c0 132 27 187
112 231 36 18 83 19 1546 19 l1509 0 27 21 c33 26 36 79 6 109 -20 20 -33 20
-1547 19 l-1528 0 -55 -21z m4200 -948 l0 -320 -199 0 -199 0 -4 78 c-8 174
-124 304 -294 332 -36 6 -741 10 -1816 10 l-1758 0 0 110 0 110 2135 0 2135 0
0 -320z m-2 -1149 l-3 -679 -30 -43 c-16 -23 -50 -53 -74 -66 -39 -20 -58 -23
-168 -23 l-123 0 0 745 0 745 200 0 201 0 -3 -679z"/>
<path d="M504 3400 c-57 -37 -59 -49 -59 -450 0 -406 -1 -398 68 -440 31 -19
55 -20 602 -20 548 0 571 1 602 20 63 38 63 40 63 456 l0 376 -39 39 -39 39
-583 0 c-568 0 -585 -1 -615 -20z m546 -250 l0 -120 -227 2 -228 3 -3 118 -3
117 231 0 230 0 0 -120z m580 70 l0 -50 -215 0 -215 0 0 50 0 50 215 0 215 0
0 -50z m0 -260 l0 -60 -215 0 -215 0 0 60 0 60 215 0 215 0 0 -60z m-580 -200
l0 -120 -230 0 -230 0 0 120 0 120 230 0 230 0 0 -120z m580 -65 l0 -55 -215
0 -215 0 0 55 0 55 215 0 215 0 0 -55z"/>
<path d="M2521 3394 c-27 -35 -26 -57 3 -91 l24 -28 746 0 745 0 22 22 c27 27
29 75 4 103 -18 20 -29 20 -771 20 l-753 0 -20 -26z"/>
<path d="M2521 3074 c-27 -35 -26 -57 3 -91 l24 -28 746 0 745 0 22 22 c27 27
29 75 4 103 -18 20 -29 20 -771 20 l-753 0 -20 -26z"/>
<path d="M3485 2174 c-47 -26 -86 -66 -106 -109 -17 -36 -19 -69 -19 -355 0
-353 2 -365 73 -427 102 -89 255 -64 324 54 l28 48 0 325 0 325 -25 45 c-14
24 -44 58 -68 74 -36 25 -54 31 -110 33 -48 2 -76 -1 -97 -13z m131 -148 c18
-14 19 -29 19 -316 0 -287 -1 -302 -19 -316 -26 -19 -65 -18 -88 3 -17 15 -18
38 -18 311 0 261 2 298 17 314 19 22 62 23 89 4z"/>
<path d="M774 2151 c-79 -58 -305 -296 -318 -334 -26 -75 -18 -88 168 -273
235 -236 229 -236 459 -7 81 81 155 160 163 175 19 36 18 98 -2 128 -25 37
-263 278 -308 311 -53 40 -109 40 -162 0z m211 -501 c-66 -66 -124 -120 -130
-120 -6 0 -64 54 -130 120 l-120 120 125 125 125 125 125 -125 125 -125 -120
-120z"/>
<path d="M495 1221 c-48 -20 -63 -84 -29 -122 17 -18 43 -19 770 -19 l753 0
20 26 c27 35 26 57 -3 91 l-24 28 -734 2 c-403 1 -742 -2 -753 -6z"/>
<path d="M3505 1169 c-45 -13 -105 -67 -126 -113 -25 -56 -25 -176 0 -232 31
-68 117 -124 192 -124 54 0 105 23 150 69 55 55 76 123 65 214 -18 139 -147
226 -281 186z m114 -165 c30 -38 28 -98 -4 -129 -52 -53 -105 -18 -105 69 0
45 4 58 22 70 33 23 64 19 87 -10z"/>
</g>
</svg>
