<?xml version="1.0" standalone="no"?>
<!DOCTYPE svg PUBLIC "-//W3C//DTD SVG 20010904//EN"
 "http://www.w3.org/TR/2001/REC-SVG-20010904/DTD/svg10.dtd">
<svg version="1.0" xmlns="http://www.w3.org/2000/svg"
 width="512.000000pt" height="512.000000pt" viewBox="0 0 512.000000 512.000000"
 preserveAspectRatio="xMidYMid meet">

<g transform="translate(0.000000,512.000000) scale(0.100000,-0.100000)"
fill="#000000" stroke="none">
<path d="M815 5105 c-85 -19 -167 -51 -222 -88 -42 -28 -48 -37 -51 -70 -7
-83 54 -99 158 -42 268 143 603 34 735 -240 119 -248 36 -533 -199 -687 -203
-132 -486 -100 -662 76 -104 104 -155 230 -155 383 0 74 5 106 26 165 46 127
43 156 -14 176 -42 15 -72 -4 -103 -68 -42 -85 -59 -163 -59 -280 0 -124 23
-217 79 -325 50 -96 182 -227 277 -277 199 -104 436 -108 630 -13 280 139 434
454 370 760 -8 39 -35 111 -59 160 -138 280 -454 436 -751 370z"/>
<path d="M912 4827 c-13 -13 -22 -36 -22 -54 0 -26 -5 -31 -40 -42 -123 -37
-178 -186 -106 -289 41 -60 78 -76 185 -82 82 -4 95 -8 108 -27 13 -19 12 -24
-6 -42 -19 -19 -33 -21 -140 -21 -117 0 -120 -1 -140 -26 -27 -34 -26 -57 2
-90 19 -22 34 -28 80 -32 52 -4 57 -6 57 -29 0 -59 50 -94 103 -72 30 13 47
43 47 84 0 16 7 25 25 29 33 8 92 61 112 100 25 48 21 126 -10 178 -38 64 -91
90 -200 97 -71 5 -92 10 -101 24 -8 12 -8 22 0 35 9 14 31 18 137 22 145 6
167 16 167 74 0 45 -37 76 -91 76 -37 0 -39 2 -39 30 0 68 -84 104 -128 57z"/>
<path d="M2198 4400 c-253 -46 -456 -218 -542 -459 -29 -81 -31 -94 -31 -232
l0 -145 -103 -49 c-180 -85 -363 -220 -485 -358 -92 -104 -107 -127 -107 -157
0 -35 38 -70 77 -70 27 0 42 12 107 88 86 101 195 196 311 272 78 50 233 130
254 130 6 0 19 -17 30 -38 11 -21 39 -63 62 -92 30 -38 39 -55 29 -58 -27 -9
-60 -52 -60 -77 0 -15 11 -37 26 -52 20 -20 32 -24 57 -20 18 4 68 13 112 21
63 12 175 15 537 16 l457 0 27 23 c20 17 27 33 27 57 0 48 -31 70 -100 70
l-55 0 36 48 c36 50 96 167 96 190 0 9 26 12 98 12 89 0 100 2 120 23 11 12
24 36 28 52 21 85 92 201 166 272 86 82 200 140 331 168 l27 5 0 -302 c0 -221
4 -310 13 -327 6 -14 49 -46 95 -72 232 -134 430 -338 550 -568 62 -119 87
-181 118 -296 33 -127 30 -125 225 -125 146 0 161 -2 179 -20 19 -19 20 -33
20 -323 0 -246 -3 -307 -14 -323 -13 -17 -31 -19 -203 -24 -231 -6 -227 -4
-301 -152 -55 -110 -63 -155 -34 -181 25 -22 85 -22 104 1 9 9 34 54 57 100
l41 82 167 0 c189 0 227 10 282 76 48 59 51 87 51 421 0 325 -3 351 -46 410
-49 65 -84 77 -238 83 l-138 5 -42 120 c-128 365 -354 635 -708 849 l-28 16 0
294 c0 287 0 294 -22 326 -13 18 -36 43 -51 54 -58 43 -213 15 -372 -67 -62
-32 -102 -63 -175 -137 -81 -80 -103 -110 -145 -192 l-49 -98 -38 0 -38 0 0
73 c-1 288 -222 568 -509 642 -77 20 -217 27 -283 15z m217 -155 c104 -22 187
-67 265 -144 216 -212 216 -550 -1 -763 l-69 -68 -305 0 -306 0 -67 68 c-107
107 -162 235 -162 379 0 253 177 475 423 528 82 18 137 18 222 0z"/>
<path d="M2272 4124 c-13 -9 -24 -30 -28 -55 -6 -35 -10 -40 -48 -51 -128 -39
-173 -202 -84 -304 46 -52 76 -64 165 -64 106 0 151 -31 107 -74 -12 -13 -40
-16 -134 -16 -137 0 -163 -11 -163 -70 0 -49 40 -80 102 -80 l48 0 7 -39 c10
-67 68 -91 120 -50 20 16 26 29 26 59 0 35 3 39 31 45 44 10 106 75 119 127
23 82 -10 166 -82 211 -37 23 -60 29 -134 34 -49 3 -95 10 -101 16 -17 13 -16
32 3 51 12 13 40 16 135 16 114 0 121 1 144 25 28 27 30 42 14 78 -14 30 -48
47 -94 47 -33 0 -35 2 -35 34 0 61 -68 95 -118 60z"/>
<path d="M3971 2804 c-18 -23 -21 -40 -21 -133 1 -113 7 -133 51 -150 30 -11
83 8 93 34 3 9 6 65 6 124 0 99 -2 109 -23 129 -33 31 -80 29 -106 -4z"/>
<path d="M813 2800 c-32 -13 -50 -46 -94 -170 -38 -108 -71 -250 -84 -361 l-6
-56 -85 -7 c-239 -20 -413 -115 -481 -262 -68 -150 -20 -315 111 -379 145 -71
311 16 324 170 4 47 1 57 -21 79 -15 15 -38 26 -52 26 -36 0 -75 -42 -75 -80
0 -70 -83 -95 -136 -39 -25 26 -29 38 -29 88 0 47 5 65 29 99 55 79 178 134
333 147 l80 7 7 -78 c17 -191 66 -364 156 -549 77 -159 161 -276 298 -414
l113 -113 10 -142 c12 -177 37 -397 51 -456 34 -140 149 -256 292 -295 206
-56 426 69 486 275 10 36 24 113 31 172 l12 108 558 0 c450 0 559 -3 559 -13
0 -7 7 -67 15 -132 20 -152 58 -238 139 -313 207 -188 520 -128 637 122 33 71
59 234 78 501 l10 140 38 30 c70 54 185 170 195 194 17 46 -25 101 -78 101 -8
0 -50 -33 -92 -73 -42 -40 -105 -94 -139 -120 -35 -27 -65 -58 -68 -70 -2 -12
-9 -89 -15 -172 -12 -175 -37 -385 -50 -434 -30 -110 -150 -190 -265 -178
-103 11 -192 84 -220 182 -17 61 -43 280 -54 468 -7 124 -11 140 -31 162 -29
31 -72 33 -100 5 -23 -23 -22 -21 -20 -153 l2 -98 -595 1 c-417 1 -602 -2
-616 -10 -25 -13 -25 -13 -50 -216 -21 -175 -35 -216 -93 -270 -55 -53 -95
-68 -173 -68 -79 0 -129 20 -183 75 -49 50 -64 94 -83 243 -41 321 -48 646
-18 859 12 86 12 88 -11 112 -32 34 -82 34 -108 0 -20 -25 -32 -95 -48 -260
l-6 -70 -54 60 c-132 147 -233 319 -293 500 -45 135 -63 236 -68 385 -8 206
21 380 93 561 19 48 34 100 34 116 0 47 -52 81 -97 63z"/>
</g>
</svg>
