<?xml version="1.0" standalone="no"?>
<!DOCTYPE svg PUBLIC "-//W3C//DTD SVG 20010904//EN"
 "http://www.w3.org/TR/2001/REC-SVG-20010904/DTD/svg10.dtd">
<svg version="1.0" xmlns="http://www.w3.org/2000/svg"
 width="132.000000pt" height="132.000000pt" viewBox="0 0 132.000000 132.000000"
 preserveAspectRatio="xMidYMid meet">

<g transform="translate(0.000000,132.000000) scale(0.100000,-0.100000)"
fill="#000000" stroke="none">
<path d="M1110 1259 l-145 -39 -351 0 c-389 0 -364 5 -364 -66 l0 -34 -102 0
c-57 0 -109 -4 -116 -8 -9 -7 -12 -58 -10 -223 l3 -214 112 -3 113 -3 0 -89 0
-89 -82 -3 -83 -3 0 -85 0 -85 83 -3 82 -3 0 -94 c0 -72 4 -97 16 -109 13 -14
62 -16 377 -16 l361 0 134 -36 c74 -19 141 -33 148 -30 12 5 14 105 12 638 -3
625 -3 633 -23 635 -11 1 -85 -16 -165 -38z m140 -599 c0 -319 -3 -580 -7
-580 -5 0 -57 13 -118 28 l-110 28 -6 215 c-3 118 -6 215 -7 217 -1 1 -10 2
-21 2 -28 0 -31 -24 -31 -237 l0 -193 -320 0 -320 0 0 86 0 85 52 -3 c49 -3
53 -5 56 -30 2 -18 9 -28 20 -28 31 0 237 126 240 147 2 15 -23 33 -117 87
-66 37 -125 65 -131 61 -5 -3 -10 -17 -10 -31 0 -23 -3 -24 -55 -24 l-55 0 0
90 0 90 289 0 289 0 6 23 c10 39 7 387 -4 408 -10 18 -24 19 -295 19 l-285 0
0 25 0 25 320 0 320 0 0 -187 c0 -208 4 -233 31 -233 11 0 20 1 21 3 1 1 4 99
7 216 l6 215 105 27 c58 15 111 28 118 28 9 1 12 -121 12 -579z m-410 235 l0
-175 -385 0 -385 0 0 175 0 175 385 0 385 0 0 -175z m-240 -497 c0 -4 -28 -23
-62 -42 -60 -34 -62 -34 -76 -15 -12 17 -26 19 -173 19 l-159 0 0 40 0 40 164
0 c153 0 165 1 171 19 5 18 10 17 70 -17 36 -21 65 -40 65 -44z"/>
<path d="M960 660 c0 -13 7 -20 20 -20 13 0 20 7 20 20 0 13 -7 20 -20 20 -13
0 -20 -7 -20 -20z"/>
<path d="M310 1005 c-9 -11 -5 -23 20 -60 l32 -47 -37 -53 c-20 -30 -34 -59
-30 -65 7 -11 45 -14 45 -2 0 4 13 22 28 40 l28 34 28 -41 c30 -43 66 -55 66
-23 0 10 -13 36 -30 58 -16 21 -30 44 -30 49 0 6 11 27 25 47 14 20 25 44 25
52 0 27 -37 18 -60 -14 -26 -37 -33 -37 -50 -4 -19 35 -45 48 -60 29z"/>
<path d="M540 1000 c-11 -20 -14 -188 -4 -214 3 -9 15 -16 25 -16 18 0 19 9
19 119 0 96 -3 120 -15 125 -8 3 -19 -3 -25 -14z"/>
<path d="M647 1013 c-4 -3 -7 -15 -7 -25 0 -12 7 -18 25 -18 24 0 24 -1 27
-97 3 -90 5 -98 23 -98 18 0 20 8 23 98 3 96 3 97 27 97 29 0 36 34 9 44 -21
8 -119 8 -127 -1z"/>
<path d="M124 997 c-2 -7 -3 -60 -2 -118 l3 -104 63 -3 c61 -3 63 -2 60 20 -2
19 -10 24 -40 26 -33 3 -38 7 -38 28 0 21 5 24 34 24 19 0 38 5 41 10 11 18
-15 40 -46 40 -22 0 -29 5 -29 20 0 14 7 20 24 20 37 0 56 10 56 31 0 17 -8
19 -60 19 -41 0 -62 -4 -66 -13z"/>
</g>
</svg>
