<?xml version="1.0" standalone="no"?>
<!DOCTYPE svg PUBLIC "-//W3C//DTD SVG 20010904//EN"
 "http://www.w3.org/TR/2001/REC-SVG-20010904/DTD/svg10.dtd">
<svg version="1.0" xmlns="http://www.w3.org/2000/svg"
 width="512.000000pt" height="512.000000pt" viewBox="0 0 512.000000 512.000000"
 preserveAspectRatio="xMidYMid meet">

<g transform="translate(0.000000,512.000000) scale(0.100000,-0.100000)"
fill="#000000" stroke="none">
<path d="M475 5108 c-50 -18 -83 -47 -112 -96 l-28 -47 -3 -1805 c-2 -1228 0
-1816 7 -1841 7 -23 20 -40 36 -47 36 -17 48 -15 79 9 l26 20 0 1805 c0 1825
0 1834 34 1856 6 4 718 8 1582 8 1340 0 1573 -2 1590 -14 18 -14 19 -31 21
-393 l3 -378 -44 -26 c-37 -23 -61 -56 -162 -218 l-119 -191 -1372 0 c-1360 0
-1373 0 -1393 -20 -32 -32 -25 -90 14 -113 16 -9 326 -13 1338 -17 l1317 -5
-62 -100 -63 -100 -843 -5 c-820 -5 -843 -6 -857 -24 -21 -30 -18 -82 8 -106
22 -20 31 -20 809 -20 l788 0 -67 -110 -67 -109 -716 -1 c-709 0 -717 0 -743
-21 -33 -26 -36 -79 -6 -109 20 -20 33 -20 690 -20 369 0 670 -2 670 -5 0 -3
-12 -29 -26 -57 -20 -40 -25 -62 -22 -104 l3 -53 -646 -3 c-620 -3 -648 -4
-668 -22 -27 -25 -29 -86 -3 -109 17 -16 113 -17 1128 -19 l1109 -3 0 -394 0
-395 -67 -11 -68 -11 0 97 c0 82 -3 100 -21 123 l-20 26 -1019 0 c-987 0
-1018 -1 -1041 -19 l-24 -19 -3 -374 c-2 -205 0 -388 3 -406 3 -18 15 -42 26
-53 18 -18 39 -19 745 -19 l727 0 -7 -52 c-3 -29 -6 -74 -6 -100 l0 -48 -1134
0 c-1131 0 -1133 0 -1160 -21 -34 -27 -36 -77 -3 -107 l23 -22 1144 -2 1144
-3 13 -50 c7 -27 13 -53 13 -57 0 -5 -553 -8 -1229 -8 -1130 0 -1230 1 -1242
17 -11 12 -15 69 -19 229 -5 198 -6 214 -25 228 -48 37 -108 8 -120 -58 -4
-19 -5 -119 -3 -223 3 -169 6 -192 25 -228 26 -50 58 -80 105 -100 33 -13 184
-15 1311 -15 l1274 0 32 -50 c68 -104 200 -219 328 -283 80 -41 219 -77 319
-84 354 -23 688 178 835 504 96 210 96 486 0 696 -118 261 -373 456 -648 495
l-48 7 -5 447 -5 447 -23 23 -23 23 -421 3 c-460 3 -458 3 -458 60 0 34 798
1318 827 1331 14 7 32 7 46 2 16 -6 142 -201 423 -652 219 -353 402 -650 405
-658 10 -25 -11 -71 -34 -76 -12 -3 -129 -6 -260 -7 -237 -3 -239 -3 -258 -27
-25 -30 -24 -76 1 -101 19 -19 33 -20 283 -20 234 0 266 2 303 19 99 45 148
191 96 287 -35 66 -808 1303 -826 1322 -11 13 -33 30 -48 38 l-27 14 -3 393
-3 392 -25 45 c-14 24 -45 58 -68 75 l-44 30 -1606 2 c-1120 1 -1616 -2 -1637
-9z m2945 -3402 l0 -73 -64 -38 c-139 -81 -257 -203 -327 -338 l-34 -67 -702
0 -703 0 0 295 0 295 915 0 915 0 0 -74z m545 -171 c195 -52 362 -193 451
-380 49 -103 67 -184 67 -300 0 -373 -284 -677 -656 -702 -127 -8 -234 14
-357 74 -81 39 -108 59 -185 137 -103 104 -152 189 -185 320 -41 161 -20 342
57 496 28 56 60 98 128 166 77 78 104 98 185 137 52 26 127 53 165 62 85 18
243 13 330 -10z"/>
<path d="M3665 1429 c-27 -6 -87 -28 -133 -49 -108 -51 -222 -161 -270 -260
-145 -299 -28 -647 265 -789 386 -189 836 94 836 524 0 141 -44 263 -137 377
-58 71 -176 151 -264 178 -78 25 -223 34 -297 19z m220 -154 c325 -85 439
-485 207 -721 -212 -216 -565 -158 -699 114 -37 74 -38 79 -38 187 0 108 1
113 38 187 93 189 294 284 492 233z"/>
<path d="M3732 907 c-62 -63 -72 -77 -72 -108 0 -45 25 -69 71 -69 30 0 45 10
107 73 59 60 72 78 72 105 0 42 -30 72 -73 72 -27 0 -44 -12 -105 -73z"/>
<path d="M930 4793 c-8 -3 -23 -12 -32 -21 -17 -14 -18 -47 -18 -424 0 -395 1
-409 20 -428 25 -25 71 -26 101 -1 23 19 24 24 27 190 l3 171 115 0 c101 0
116 2 134 20 33 33 30 75 -6 108 -23 20 -35 22 -135 22 l-109 0 0 110 0 110
129 0 c128 0 130 0 150 26 34 43 26 86 -20 109 -21 12 -66 15 -186 14 -87 0
-165 -3 -173 -6z"/>
<path d="M1585 4788 c-45 -24 -45 -22 -45 -445 l0 -404 25 -24 c13 -14 36 -25
50 -25 14 0 37 11 50 25 l25 24 0 400 c0 220 -3 407 -6 416 -6 15 -54 45 -71
45 -4 0 -17 -6 -28 -12z"/>
<path d="M2503 4790 c-12 -5 -29 -20 -38 -34 -15 -22 -16 -54 -9 -293 7 -267
7 -268 -13 -243 -11 14 -100 142 -198 285 -98 143 -185 266 -193 273 -28 22
-78 15 -101 -14 -20 -26 -21 -37 -21 -426 l0 -399 25 -24 c29 -30 64 -32 96
-6 24 19 24 20 29 291 l5 272 185 -267 c102 -147 196 -276 209 -286 34 -27 68
-24 102 10 l29 29 0 215 c0 358 -11 576 -29 597 -20 23 -50 31 -78 20z"/>
<path d="M2895 4789 c-45 -26 -45 -23 -45 -440 0 -386 1 -397 21 -423 l20 -26
190 0 c176 0 190 1 209 20 30 30 27 83 -6 109 -24 19 -40 21 -155 21 l-129 0
0 110 0 110 120 0 c115 0 122 1 145 25 32 31 33 74 2 103 -21 20 -34 22 -145
22 l-122 0 0 115 0 115 133 0 c156 0 177 8 177 69 0 26 -7 44 -21 57 -19 17
-40 19 -198 22 -117 1 -183 -2 -196 -9z"/>
<path d="M3731 3694 c-20 -25 -21 -39 -21 -279 0 -232 2 -255 19 -276 13 -17
29 -23 56 -23 27 0 43 6 56 23 17 21 19 44 19 278 l0 254 -25 24 c-33 34 -77
33 -104 -1z"/>
<path d="M902 3370 c-32 -30 -30 -82 4 -109 45 -35 93 -22 113 30 11 30 -8 83
-34 93 -31 11 -61 6 -83 -14z"/>
<path d="M906 2999 c-52 -41 -23 -129 43 -129 70 0 100 81 47 127 -33 28 -56
29 -90 2z"/>
<path d="M3732 2937 c-31 -33 -29 -80 4 -106 44 -34 86 -26 110 21 39 75 -57
146 -114 85z"/>
<path d="M897 2622 c-23 -25 -22 -85 1 -105 26 -24 85 -22 107 3 43 48 10 120
-55 120 -23 0 -43 -7 -53 -18z"/>
<path d="M636 2279 c-33 -26 -36 -79 -6 -109 20 -20 33 -20 1459 -20 1358 0
1440 1 1460 18 33 26 31 79 -3 109 l-27 23 -1428 0 -1428 0 -27 -21z"/>
<path d="M895 1915 c-14 -13 -25 -36 -25 -50 0 -14 -5 -25 -12 -25 -22 0 -78
-51 -97 -89 -28 -54 -34 -102 -21 -152 17 -63 70 -109 179 -154 50 -21 96 -44
102 -52 21 -24 13 -76 -16 -100 -34 -30 -110 -31 -165 -3 -49 25 -61 25 -94
-1 -18 -14 -26 -30 -26 -53 0 -48 33 -79 113 -105 26 -9 37 -18 37 -32 0 -28
44 -69 73 -69 37 0 77 36 77 70 0 20 6 31 21 35 29 9 97 72 114 106 66 127 12
269 -121 319 -71 26 -137 60 -146 74 -10 15 0 48 20 64 25 19 73 14 117 -13
22 -14 50 -25 63 -25 57 0 84 86 40 127 -13 11 -42 30 -65 42 -33 16 -43 27
-43 45 0 30 -43 66 -77 66 -13 0 -35 -11 -48 -25z"/>
</g>
</svg>
