<?xml version="1.0" standalone="no"?>
<!DOCTYPE svg PUBLIC "-//W3C//DTD SVG 20010904//EN"
 "http://www.w3.org/TR/2001/REC-SVG-20010904/DTD/svg10.dtd">
<svg version="1.0" xmlns="http://www.w3.org/2000/svg"
 width="512.000000pt" height="512.000000pt" viewBox="0 0 512.000000 512.000000"
 preserveAspectRatio="xMidYMid meet">

<g transform="translate(0.000000,512.000000) scale(0.100000,-0.100000)"
fill="#000000" stroke="none">
<path d="M2370 5114 c-19 -2 -78 -9 -130 -15 -548 -62 -1083 -325 -1489 -730
-405 -406 -651 -906 -732 -1489 -20 -143 -18 -527 4 -670 89 -580 328 -1058
728 -1459 615 -614 1476 -871 2334 -696 66 14 155 36 198 49 l78 24 13 -27
c39 -74 102 -101 234 -101 114 0 154 11 199 53 41 39 58 85 79 219 l17 106 99
69 c55 37 110 74 122 82 22 14 30 10 145 -72 150 -107 169 -117 226 -117 67 0
103 21 189 109 83 85 96 110 96 177 0 56 -10 75 -117 225 -82 115 -86 123 -72
145 8 12 45 67 82 122 l69 99 106 17 c134 21 180 38 219 79 42 45 53 85 53
199 0 132 -27 195 -101 233 l-26 14 24 83 c208 709 92 1501 -311 2112 -128
196 -321 419 -372 432 -39 10 -78 -23 -82 -69 -3 -33 3 -44 65 -109 38 -40 85
-94 106 -120 l38 -47 2 -113 c2 -99 -1 -118 -19 -153 -31 -57 -43 -65 -193
-139 -87 -43 -146 -66 -169 -66 -19 0 -118 16 -221 36 -167 33 -192 35 -244
26 -121 -23 -215 -94 -265 -200 -25 -52 -27 -68 -27 -177 0 -111 2 -125 28
-180 16 -33 37 -69 48 -81 18 -19 18 -22 4 -34 -31 -26 -45 -70 -74 -245 -17
-98 -31 -179 -33 -180 -3 -2 -174 -73 -189 -78 -3 -1 -66 41 -139 93 -167 119
-185 129 -238 130 -64 0 -110 -24 -186 -98 -78 -76 -106 -127 -105 -192 0 -55
9 -72 129 -240 52 -73 94 -136 93 -139 -5 -15 -76 -186 -78 -189 -1 -2 -82
-16 -180 -33 -184 -31 -215 -41 -252 -81 -40 -43 -53 -91 -53 -198 0 -136 27
-197 104 -237 21 -11 338 -72 378 -73 3 0 12 -17 19 -37 6 -21 24 -65 39 -98
l27 -61 -103 -144 c-110 -153 -124 -180 -124 -242 0 -55 29 -103 107 -179 81
-79 116 -99 178 -99 58 0 80 12 246 130 97 70 140 95 150 89 8 -5 50 -23 94
-40 44 -17 81 -32 83 -34 4 -4 32 -168 32 -191 0 -18 -15 -25 -112 -52 -243
-67 -389 -86 -658 -86 -227 -1 -349 11 -522 50 l-68 16 26 51 c20 38 27 67 27
112 1 95 -22 132 -172 279 -72 71 -133 138 -136 150 -3 11 -14 140 -25 285
l-20 264 46 101 c25 55 65 142 87 191 35 76 41 100 41 155 0 92 -26 141 -131
251 -126 132 -144 139 -353 139 -141 0 -171 3 -200 18 -63 33 -95 132 -65 196
22 45 55 63 138 75 114 16 131 30 321 266 102 126 151 194 162 227 12 39 15
84 12 230 -4 251 -5 253 -263 433 -77 54 -148 107 -157 119 -9 11 -25 49 -34
84 -18 67 -49 102 -88 102 -30 0 -63 -25 -70 -54 -8 -34 37 -173 72 -222 17
-23 93 -84 188 -150 87 -62 168 -122 179 -134 18 -20 20 -39 23 -185 2 -116 0
-171 -9 -187 -18 -34 -266 -334 -294 -356 -14 -11 -55 -24 -96 -30 -90 -13
-153 -51 -196 -116 -65 -95 -68 -192 -11 -305 64 -127 141 -161 370 -161 171
0 177 -2 255 -82 66 -68 103 -124 103 -156 0 -14 -38 -107 -84 -206 -46 -100
-86 -196 -90 -215 -6 -32 28 -533 40 -596 13 -63 58 -124 171 -230 128 -121
151 -156 133 -211 -25 -76 -84 -82 -226 -23 -534 221 -982 637 -1238 1147 -25
51 -46 98 -46 105 0 7 26 44 58 83 112 134 111 131 153 377 42 245 40 253 -92
422 -101 130 -154 163 -261 164 -31 1 -60 5 -63 11 -8 13 10 210 31 330 64
377 218 732 453 1043 85 114 311 352 322 340 4 -4 19 -47 33 -94 14 -47 34
-93 44 -102 42 -38 122 -7 122 47 0 13 -16 76 -36 141 -29 96 -33 119 -22 132
47 57 415 266 575 327 l43 16 125 -249 c113 -225 130 -254 180 -299 90 -83
217 -118 336 -93 32 7 89 32 135 59 69 41 87 47 146 50 93 6 142 -19 213 -108
78 -97 142 -139 251 -160 53 -10 80 -9 198 9 149 22 207 43 272 96 64 53 95
109 169 305 37 99 72 180 77 180 5 0 56 -31 112 -70 65 -45 111 -70 129 -70
38 0 67 32 67 74 0 39 -26 64 -160 153 -310 205 -673 343 -1055 399 -96 14
-473 27 -545 18z m540 -169 c141 -21 331 -69 462 -115 120 -43 308 -129 308
-141 0 -21 -142 -376 -163 -408 -38 -57 -103 -86 -240 -105 -108 -16 -123 -16
-172 -1 -56 16 -83 38 -168 138 -69 81 -153 121 -267 125 -97 4 -167 -15 -242
-65 -54 -37 -100 -53 -152 -53 -46 0 -119 30 -155 63 -13 12 -75 125 -138 251
-88 175 -111 231 -101 237 35 22 332 79 488 93 94 8 439 -3 540 -19z m1779
-1255 c290 -547 357 -1178 189 -1787 -27 -98 -34 -113 -52 -113 -23 0 -187 28
-191 32 -2 2 -17 39 -34 83 -17 44 -35 86 -40 94 -6 10 19 53 89 150 118 165
130 188 130 246 0 62 -26 108 -107 186 -90 88 -120 103 -197 96 -52 -5 -63 -2
-91 18 -64 50 -101 59 -265 65 -130 4 -161 9 -194 26 -44 22 -49 30 -65 91
-24 90 -101 142 -207 143 -60 0 -63 2 -112 48 -57 54 -72 93 -72 193 0 117 63
202 166 224 21 4 98 -7 215 -30 255 -51 276 -49 462 43 78 38 162 88 187 110
49 42 93 115 105 171 9 44 18 34 84 -89z m-982 -832 c6 -7 25 -103 42 -213 37
-225 42 -235 119 -255 26 -6 89 -31 141 -56 51 -24 103 -44 115 -44 11 0 97
54 190 120 92 66 176 120 185 120 22 0 131 -111 131 -133 0 -10 -54 -94 -120
-186 -66 -93 -120 -177 -120 -188 0 -11 20 -63 44 -114 25 -52 50 -115 56
-141 19 -77 31 -82 250 -118 107 -18 203 -36 213 -42 14 -7 17 -23 17 -97 0
-59 -4 -92 -12 -99 -7 -5 -103 -25 -212 -43 -228 -37 -233 -40 -261 -134 -9
-33 -35 -95 -56 -137 -22 -43 -39 -88 -39 -100 0 -14 50 -94 120 -191 66 -92
120 -175 120 -185 0 -22 -110 -132 -133 -132 -9 0 -92 54 -184 120 -97 70
-177 120 -191 120 -12 0 -57 -17 -100 -39 -42 -21 -104 -47 -137 -56 -94 -28
-97 -33 -134 -261 -18 -109 -38 -205 -43 -211 -7 -9 -40 -13 -99 -13 -74 0
-90 3 -97 18 -6 9 -24 105 -42 212 -36 219 -41 231 -118 250 -26 6 -89 31
-141 56 -51 24 -103 44 -114 44 -11 0 -95 -54 -188 -120 -92 -66 -176 -120
-186 -120 -22 0 -133 109 -133 131 0 9 54 93 120 185 66 93 120 179 120 190 0
12 -20 64 -44 115 -25 52 -50 115 -56 141 -20 77 -30 82 -255 119 -110 17
-206 36 -212 42 -9 6 -13 39 -13 98 0 83 2 90 23 99 12 5 108 23 212 41 220
36 220 36 255 144 12 39 38 100 56 137 19 37 34 78 34 90 0 14 -50 94 -120
191 -66 92 -120 174 -120 183 0 22 110 134 131 134 10 0 94 -54 186 -120 97
-70 177 -120 191 -120 12 0 53 15 90 34 37 18 99 44 137 56 109 36 108 35 145
260 18 107 36 203 42 213 7 14 23 17 97 17 59 0 92 -4 98 -12z m406 -248 c87
0 126 -4 148 -16 l30 -15 -87 -63 -88 -63 -61 27 c-33 15 -76 33 -96 39 -29 9
-38 18 -43 43 -12 63 -10 66 37 57 23 -4 95 -8 160 -9z m-3825 -155 c44 -37
141 -167 152 -204 6 -23 1 -77 -20 -202 -30 -178 -36 -192 -104 -274 l-25 -29
-9 25 c-57 148 -110 411 -127 627 l-6 82 55 0 c44 0 60 -5 84 -25z"/>
<path d="M3575 1913 c-60 -7 -75 -14 -91 -44 -13 -26 -13 -36 -3 -60 16 -41
35 -48 115 -47 113 1 189 -42 239 -133 67 -124 21 -274 -106 -344 -159 -86
-360 23 -371 201 -1 22 2 62 6 89 6 44 4 55 -14 78 -28 35 -77 37 -108 4 -28
-29 -42 -125 -30 -207 44 -325 449 -460 681 -228 156 156 163 395 16 563 -74
84 -218 140 -334 128z"/>
</g>
</svg>
