<?xml version="1.0" standalone="no"?>
<!DOCTYPE svg PUBLIC "-//W3C//DTD SVG 20010904//EN"
 "http://www.w3.org/TR/2001/REC-SVG-20010904/DTD/svg10.dtd">
<svg version="1.0" xmlns="http://www.w3.org/2000/svg"
 width="512.000000pt" height="512.000000pt" viewBox="0 0 512.000000 512.000000"
 preserveAspectRatio="xMidYMid meet">

<g transform="translate(0.000000,512.000000) scale(0.100000,-0.100000)"
fill="#000000" stroke="none">
<path d="M2395 5106 c-366 -71 -647 -331 -747 -691 -24 -83 -35 -303 -20 -383
l10 -53 -50 -27 c-186 -100 -328 -204 -481 -352 -350 -337 -567 -771 -627
-1255 -16 -126 -13 -401 4 -528 63 -446 256 -846 563 -1168 351 -366 815 -589
1330 -640 210 -21 612 13 681 57 35 23 47 56 31 89 -24 49 -35 51 -191 24
-192 -32 -492 -33 -666 -1 -63 11 -116 23 -119 26 -3 3 2 23 11 46 21 53 20
115 -3 165 -10 23 -63 84 -124 144 -78 77 -108 113 -112 135 -3 17 -12 120
-20 229 l-15 199 61 131 c34 73 66 143 71 157 14 38 11 123 -6 165 -22 53
-139 180 -195 213 -43 25 -54 27 -186 30 -77 2 -152 8 -167 13 -27 11 -58 69
-58 110 0 37 50 75 108 82 90 11 125 38 259 202 68 83 131 166 140 185 14 28
19 66 21 184 5 225 -5 243 -209 387 -71 50 -134 100 -140 110 -22 42 -170 552
-162 558 88 60 190 125 235 151 l57 31 39 -78 c94 -187 257 -345 445 -431 l57
-26 0 -202 c0 -189 1 -203 21 -228 26 -33 79 -36 109 -6 19 19 20 33 20 205
l0 185 63 -8 c79 -9 175 -9 255 0 l62 8 0 -560 c0 -665 -15 -600 140 -600 55
0 100 -3 100 -7 0 -8 -423 -573 -430 -573 -7 0 -430 565 -430 573 0 4 44 7 98
7 149 0 142 -13 142 268 0 261 -3 272 -70 272 -30 0 -43 -6 -59 -26 -19 -25
-21 -40 -21 -195 l0 -169 -134 0 c-120 0 -136 -2 -160 -21 -56 -44 -53 -49
279 -493 177 -235 316 -411 330 -418 19 -8 31 -8 50 0 14 7 153 183 330 418
332 444 335 449 279 493 -24 19 -40 21 -160 21 l-134 0 0 529 0 528 51 22 c85
35 211 125 288 206 76 81 119 141 170 243 l32 63 57 -32 c171 -97 294 -190
433 -329 157 -156 160 -160 162 -267 3 -126 -11 -146 -155 -218 -65 -33 -123
-55 -141 -55 -18 0 -88 12 -157 25 -220 44 -309 28 -395 -67 -61 -67 -79 -118
-79 -228 0 -81 4 -103 26 -151 32 -69 63 -99 248 -235 191 -140 202 -145 365
-153 183 -8 197 -20 245 -209 l21 -82 -38 -137 c-45 -165 -58 -180 -192 -237
-111 -47 -179 -104 -209 -173 -17 -40 -125 -491 -147 -615 -11 -60 12 -135 57
-184 l39 -43 -42 -27 c-24 -15 -82 -45 -129 -67 -47 -22 -95 -49 -107 -60 -31
-28 -30 -71 3 -104 33 -33 54 -29 197 43 539 270 939 768 1085 1351 75 297 85
645 26 927 -69 330 -195 607 -403 881 -68 89 -244 268 -341 344 -106 84 -180
134 -296 199 l-91 52 8 42 c12 61 11 244 -2 314 -26 148 -106 332 -151 348
-38 13 -76 0 -93 -35 -15 -29 -15 -33 24 -117 60 -132 72 -183 78 -322 4 -105
2 -139 -16 -215 -56 -234 -210 -426 -426 -530 -125 -60 -205 -79 -345 -79
-221 0 -398 73 -555 229 -160 159 -235 338 -235 563 1 213 67 381 213 538 261
281 674 334 1003 129 82 -51 105 -55 139 -20 36 35 32 71 -11 111 -48 46 -221
130 -319 155 -104 26 -303 34 -400 15z m-1090 -1738 c92 -313 105 -347 137
-383 17 -20 88 -76 159 -126 71 -50 133 -99 139 -109 5 -10 10 -75 10 -144 l0
-125 -121 -150 c-90 -112 -127 -151 -147 -155 -15 -2 -45 -8 -67 -11 -56 -10
-87 -28 -133 -80 -104 -118 -65 -314 77 -387 51 -27 60 -28 190 -28 87 -1 144
-5 158 -13 12 -7 47 -40 78 -75 45 -49 57 -69 57 -95 0 -18 -26 -86 -60 -158
-33 -70 -65 -144 -71 -165 -8 -29 -7 -94 4 -249 23 -318 15 -297 156 -440 127
-130 137 -149 97 -192 -26 -28 -38 -29 -108 -2 -317 120 -638 361 -848 639
-92 123 -222 345 -222 381 0 6 23 38 51 72 73 87 84 115 114 287 34 196 29
225 -54 338 -93 125 -161 172 -251 172 l-33 0 7 96 c29 420 224 850 531 1173
48 50 90 91 94 91 4 0 29 -73 56 -162z m2997 -410 c137 -277 199 -545 199
-863 0 -399 -105 -748 -326 -1080 -114 -172 -327 -401 -421 -451 -41 -22 -77
-12 -107 28 l-21 28 67 297 c38 169 75 309 85 323 10 15 68 50 139 85 131 64
162 88 198 150 34 58 98 289 98 355 0 67 -46 240 -78 296 -29 49 -85 101 -134
122 -23 10 -82 18 -167 22 -152 7 -145 3 -348 157 -163 123 -170 132 -170 226
-1 84 18 128 67 157 43 27 97 25 252 -6 177 -36 204 -32 362 45 137 67 187
109 219 180 10 23 21 41 24 41 4 0 32 -51 62 -112z m-3604 -954 c29 -20 121
-142 128 -168 2 -12 -7 -83 -20 -160 -20 -110 -31 -145 -52 -173 -15 -20 -30
-31 -35 -26 -27 27 -98 383 -99 496 0 45 1 47 28 47 15 0 38 -7 50 -16z"/>
<path d="M2505 4785 c-15 -14 -25 -36 -25 -53 0 -25 -6 -31 -55 -51 -65 -27
-136 -100 -153 -159 -38 -127 17 -247 147 -322 l61 -35 0 -172 0 -172 -28 8
c-15 5 -46 18 -69 30 -56 28 -87 27 -112 -5 -28 -36 -26 -69 4 -100 29 -29
113 -68 168 -78 35 -7 37 -9 37 -44 0 -70 52 -107 109 -78 33 18 41 34 41 85
0 36 2 39 47 56 96 37 180 154 190 265 7 69 -8 125 -50 187 -26 38 -47 56
-109 87 l-78 40 0 128 c0 70 2 128 4 128 3 0 25 -11 50 -24 26 -14 54 -22 66
-19 26 7 60 50 60 76 0 30 -73 94 -130 114 -46 16 -50 20 -50 51 0 40 -38 82
-75 82 -14 0 -37 -11 -50 -25z m-25 -345 c0 -97 -1 -100 -20 -90 -26 14 -50
61 -50 99 0 29 42 91 61 91 5 0 9 -45 9 -100z m209 -373 c49 -53 28 -173 -36
-215 l-23 -14 0 136 c0 127 1 136 18 127 9 -5 28 -21 41 -34z"/>
</g>
</svg>
