<?xml version="1.0" standalone="no"?>
<!DOCTYPE svg PUBLIC "-//W3C//DTD SVG 20010904//EN"
 "http://www.w3.org/TR/2001/REC-SVG-20010904/DTD/svg10.dtd">
<svg version="1.0" xmlns="http://www.w3.org/2000/svg"
 width="512.000000pt" height="512.000000pt" viewBox="0 0 512.000000 512.000000"
 preserveAspectRatio="xMidYMid meet">

<g transform="translate(0.000000,512.000000) scale(0.100000,-0.100000)"
fill="#000000" stroke="none">
<path d="M2613 5094 c-48 -23 -65 -44 -222 -264 -94 -132 -176 -251 -181 -265
-15 -39 -12 -111 6 -153 33 -79 117 -132 211 -132 l33 0 0 -169 0 -169 27 -33
c42 -49 77 -59 210 -59 139 0 179 9 219 51 l29 30 3 175 3 174 30 0 c129 0
228 92 229 213 0 60 -16 98 -69 165 -35 44 -46 52 -76 52 -24 0 -39 -7 -54
-26 -29 -37 -26 -63 14 -120 64 -90 40 -134 -73 -134 -42 0 -74 -6 -93 -17
-51 -30 -59 -63 -59 -247 l0 -166 -95 0 -95 0 0 166 c0 232 -18 264 -152 264
-75 0 -108 18 -108 58 0 19 44 89 146 232 81 113 156 215 167 228 34 37 62 29
110 -33 23 -31 53 -58 66 -62 58 -15 111 38 91 91 -20 54 -85 126 -134 151
-64 32 -118 32 -183 -1z"/>
<path d="M3720 4720 c-19 -10 -47 -31 -61 -47 -34 -37 -294 -402 -325 -456
-51 -89 -22 -211 64 -272 34 -23 56 -30 107 -33 l65 -4 0 -167 c0 -147 2 -170
20 -198 33 -55 62 -63 225 -63 163 0 192 8 225 63 18 28 20 51 20 200 l0 167
49 0 c77 0 148 42 183 109 31 60 36 122 14 174 -13 31 -298 439 -340 485 -54
61 -173 82 -246 42z m289 -356 c89 -124 161 -235 161 -247 0 -41 -28 -57 -99
-57 -48 0 -75 -5 -98 -20 -56 -34 -63 -60 -63 -245 l0 -165 -95 0 -95 0 -1
158 c0 234 -16 261 -159 271 -138 11 -136 33 22 255 209 293 194 276 232 276
33 0 40 -7 195 -226z"/>
<path d="M2112 3709 c-665 -55 -1268 -486 -1537 -1097 -509 -1158 248 -2464
1507 -2601 471 -52 977 97 1348 396 96 77 249 235 320 328 188 250 286 476
355 820 3 14 20 27 55 39 129 46 303 192 395 331 104 155 147 303 147 495 0
224 -67 404 -214 580 -101 120 -279 234 -430 275 -81 21 -112 15 -134 -27 -15
-28 -15 -34 0 -64 12 -26 25 -35 58 -44 216 -55 397 -200 491 -392 61 -124 79
-199 80 -328 0 -119 -18 -206 -62 -304 -124 -274 -378 -438 -676 -438 -212 0
-370 66 -520 216 -99 100 -144 168 -180 273 -139 400 74 826 479 958 44 14 88
33 98 42 26 23 23 75 -5 101 -29 27 -48 27 -126 3 l-62 -19 -57 48 c-95 79
-220 158 -357 226 -216 106 -421 162 -675 184 -128 11 -151 11 -298 -1z m88
-529 l0 -380 -380 0 c-209 0 -380 3 -380 8 0 19 116 242 163 315 144 220 328
373 508 421 99 27 89 67 89 -364z m223 365 c223 -58 458 -279 604 -569 l36
-71 -28 -52 -27 -53 -329 0 -329 0 0 380 c0 209 4 380 8 380 4 0 34 -7 65 -15z
m-802 -151 c-114 -125 -238 -328 -312 -511 l-33 -83 -214 0 c-168 0 -212 3
-206 13 4 6 36 49 71 94 143 186 342 352 551 461 97 50 175 86 200 91 2 1 -23
-29 -57 -65z m1336 28 c103 -44 234 -120 327 -188 l66 -49 -27 -20 c-15 -11
-55 -44 -90 -72 -34 -29 -64 -53 -67 -53 -2 0 -22 33 -44 73 -55 100 -131 204
-203 282 -34 36 -59 65 -55 65 3 0 45 -17 93 -38z m-1737 -786 c0 -7 -9 -49
-20 -94 -32 -128 -58 -295 -71 -459 l-12 -153 -275 0 -275 0 6 91 c13 172 80
415 158 572 l29 57 230 0 c187 0 230 -3 230 -14z m975 -346 l0 -355 -462 -3
-463 -2 0 27 c0 55 21 260 36 353 18 108 62 296 75 323 9 16 37 17 412 15
l402 -3 0 -355z m752 338 c-19 -76 -29 -184 -24 -263 10 -144 42 -247 135
-427 2 -5 -156 -8 -352 -8 l-356 0 0 360 0 360 301 0 301 0 -5 -22z m-1822
-945 c10 -148 33 -314 61 -442 13 -64 27 -128 31 -143 l6 -28 -236 0 -235 0
-45 108 c-80 192 -121 350 -133 515 l-7 87 275 0 276 0 7 -97z m1075 -258 l0
-355 -409 0 -409 0 -21 78 c-43 161 -73 346 -86 535 l-7 97 466 0 466 0 0
-355z m1030 318 l42 -38 -12 -120 c-11 -123 -57 -368 -85 -462 l-16 -53 -404
0 -405 0 0 355 0 355 419 0 418 0 43 -37z m292 -168 c119 -40 249 -57 356 -48
70 6 74 5 69 -13 -3 -10 -13 -46 -21 -79 -24 -92 -63 -202 -103 -287 l-36 -78
-234 0 c-128 0 -233 2 -233 4 0 3 11 51 25 108 27 111 65 343 65 396 0 17 2
32 4 32 2 0 51 -16 108 -35z m-2222 -716 c63 -175 205 -411 319 -532 77 -82
72 -82 -95 -1 -236 112 -457 294 -614 504 -75 99 -90 90 153 90 l214 0 23 -61z
m900 -320 l0 -382 -46 7 c-56 7 -146 43 -222 87 -84 50 -247 217 -320 329 -57
87 -150 264 -166 318 l-7 22 380 0 381 0 0 -381z m885 326 c-166 -373 -391
-614 -644 -689 -101 -30 -91 -68 -91 364 l0 380 379 0 380 0 -24 -55z m563
-17 c-83 -117 -286 -313 -413 -397 -95 -64 -333 -191 -358 -191 -5 0 16 28 46
63 80 91 141 178 202 286 48 85 71 134 128 274 l16 37 216 0 215 0 -52 -72z"/>
<path d="M3766 2927 c-20 -20 -26 -37 -26 -69 -1 -41 -3 -44 -53 -73 -72 -42
-110 -99 -115 -175 -6 -77 8 -109 69 -164 45 -40 100 -68 222 -111 80 -28 106
-75 70 -123 -54 -73 -166 -71 -256 4 -16 13 -40 24 -53 24 -33 0 -74 -42 -74
-76 0 -38 75 -108 140 -131 49 -18 50 -18 50 -60 0 -54 26 -83 74 -83 45 0 76
37 76 91 0 33 3 38 29 44 52 11 118 61 148 112 23 40 28 59 27 113 -1 124 -54
183 -216 240 -51 17 -108 43 -125 56 -70 53 -23 124 80 124 35 0 57 -8 105
-40 66 -45 78 -47 110 -24 31 21 44 58 32 89 -11 29 -84 83 -143 106 -39 15
-42 20 -49 64 -8 56 -21 72 -65 81 -26 5 -37 1 -57 -19z"/>
</g>
</svg>
