<?xml version="1.0" standalone="no"?>
<!DOCTYPE svg PUBLIC "-//W3C//DTD SVG 20010904//EN"
 "http://www.w3.org/TR/2001/REC-SVG-20010904/DTD/svg10.dtd">
<svg version="1.0" xmlns="http://www.w3.org/2000/svg"
 width="512.000000pt" height="512.000000pt" viewBox="0 0 512.000000 512.000000"
 preserveAspectRatio="xMidYMid meet">

<g transform="translate(0.000000,512.000000) scale(0.100000,-0.100000)"
fill="#000000" stroke="none">
<path d="M2195 4952 c-49 -23 -87 -66 -109 -124 -9 -24 -77 -207 -150 -408
l-132 -365 -95 -6 c-52 -3 -110 -12 -129 -21 -19 -8 -116 -79 -215 -158 -99
-78 -193 -149 -210 -158 -24 -14 -68 -17 -225 -20 l-195 -4 -19 32 c-10 17
-32 40 -50 51 -28 17 -52 19 -297 19 -260 0 -267 -1 -300 -23 -72 -48 -69 -19
-69 -726 0 -633 0 -633 22 -672 14 -25 37 -46 63 -59 38 -18 62 -20 285 -20
226 0 247 2 286 21 48 23 84 82 84 137 l0 32 251 0 250 0 92 -39 c51 -21 116
-44 145 -50 32 -7 175 -11 369 -11 l316 0 193 -70 c133 -48 208 -70 239 -70
51 0 108 25 144 63 15 17 92 215 227 586 112 309 204 569 204 579 0 22 -32 58
-59 67 -11 3 -33 -1 -49 -9 -26 -13 -40 -46 -152 -353 -67 -186 -124 -339
-125 -341 -2 -2 -33 6 -70 17 -133 41 -279 19 -388 -59 -65 -47 -129 -131
-152 -200 l-16 -49 -82 31 c-45 16 -90 32 -99 35 -15 5 -15 8 -1 46 71 199 -8
422 -186 524 -25 15 -47 27 -49 29 -2 1 19 24 46 52 52 53 115 167 132 240
l11 42 77 0 77 -1 19 -42 c45 -97 178 -186 310 -207 218 -35 401 108 383 300
-8 90 -67 190 -145 244 -34 23 -40 33 -45 73 -5 49 -27 85 -71 117 -26 20 -45
21 -300 26 l-273 5 59 159 c32 88 59 161 61 162 2 2 25 -5 53 -15 154 -59 335
-19 454 100 48 48 110 152 110 184 0 20 1 20 108 -17 70 -25 92 -37 88 -48
-39 -124 -45 -200 -22 -285 38 -145 151 -266 284 -306 24 -7 41 -17 39 -23 -2
-6 -16 -47 -32 -91 -34 -96 -30 -130 17 -149 36 -16 60 -11 83 14 9 10 66 153
126 317 100 271 110 303 106 355 -4 63 -31 112 -81 145 -47 32 -1084 406
-1136 410 -30 2 -59 -3 -85 -15z m223 -183 c155 -56 155 -56 123 -124 -43 -94
-144 -158 -251 -159 -64 -1 -150 25 -150 45 0 15 92 264 102 277 15 18 21 17
176 -39z m768 -279 c147 -54 164 -63 164 -89 0 -9 -21 -76 -47 -148 -34 -93
-53 -133 -64 -133 -8 0 -38 12 -67 26 -95 47 -162 150 -162 249 0 38 26 145
35 145 2 0 65 -23 141 -50z m-731 -627 c-10 -53 -29 -87 -71 -121 -53 -44
-101 -52 -304 -52 -204 0 -234 -7 -270 -65 -11 -19 -28 -60 -36 -92 -39 -151
-163 -262 -313 -278 -75 -8 -99 -20 -112 -52 -19 -51 18 -103 75 -103 14 0 26
-4 26 -9 0 -5 -18 -58 -40 -118 -50 -138 -54 -160 -40 -212 21 -80 67 -115
230 -176 l145 -54 -105 0 c-119 -1 -148 5 -276 60 l-91 39 -267 0 -266 0 0
455 0 455 175 0 c180 0 255 10 315 41 19 10 109 77 200 150 91 72 179 140 195
150 28 18 56 19 434 19 l403 0 -7 -37z m148 -192 c85 -94 48 -205 -77 -231
-84 -17 -190 14 -244 73 -27 28 -25 30 54 42 56 9 132 54 179 108 22 25 43 46
46 46 4 1 23 -17 42 -38z m-2013 -631 l0 -600 -220 0 -220 0 0 600 0 600 220
0 220 0 0 -600z m1137 2 c82 -59 126 -141 125 -236 0 -58 -22 -136 -39 -136
-20 0 -270 95 -286 109 -22 18 -21 20 39 184 l46 126 43 -14 c24 -7 56 -22 72
-33z m970 -345 l32 -17 -38 -108 c-62 -172 -67 -182 -93 -182 -24 0 -276 87
-292 101 -13 11 37 110 75 148 18 19 56 45 84 58 42 20 61 23 125 20 44 -2 88
-11 107 -20z"/>
<path d="M4135 3774 c-11 -2 -45 -9 -75 -15 -260 -52 -491 -313 -561 -632 -40
-182 -24 -407 43 -579 42 -111 86 -141 142 -97 34 27 33 50 -9 174 -100 293
-39 623 154 827 112 119 226 172 371 172 141 0 245 -45 357 -155 125 -123 197
-288 218 -499 14 -153 -34 -357 -116 -490 -119 -191 -119 -227 0 -384 29 -38
46 -66 39 -64 -7 3 -37 13 -66 23 -29 9 -96 46 -148 81 l-96 63 -141 -2 c-161
-2 -194 6 -308 74 -76 45 -101 48 -134 14 -55 -54 -20 -107 119 -175 110 -55
205 -74 326 -66 l95 6 50 -36 c115 -82 279 -144 385 -144 61 0 111 32 127 82
18 54 2 92 -66 162 -61 64 -121 150 -121 173 0 7 15 34 34 60 129 182 193 440
166 668 -39 330 -207 586 -464 706 -94 44 -242 68 -321 53z"/>
<path d="M4425 3109 c-11 -6 -73 -63 -137 -127 l-117 -116 -60 57 c-45 43 -67
57 -89 57 -37 0 -69 -26 -78 -63 -6 -26 3 -38 98 -133 74 -74 111 -104 128
-104 17 0 69 45 192 167 134 133 168 173 168 194 0 53 -61 92 -105 68z"/>
<path d="M3319 1916 c-115 -31 -190 -130 -190 -252 0 -102 21 -133 218 -321
96 -92 179 -175 184 -185 22 -41 -4 -55 -216 -124 -139 -45 -212 -63 -227 -59
-13 4 -124 70 -247 147 -123 77 -242 147 -265 155 -53 19 -158 21 -216 5 -101
-30 -206 -131 -217 -209 -11 -85 -11 -85 477 -423 247 -171 468 -321 492 -335
56 -31 149 -55 213 -55 70 0 131 16 455 121 l285 92 158 4 157 5 0 -107 c0
-129 18 -173 85 -205 38 -18 62 -20 285 -20 223 0 247 2 285 20 26 13 49 34
63 59 22 39 22 39 22 672 0 707 3 678 -69 726 -33 22 -40 23 -298 23 -288 0
-302 -2 -342 -58 -11 -16 -23 -40 -26 -55 l-7 -27 -119 0 -118 0 -330 199
c-242 146 -343 202 -381 210 -60 13 -53 13 -111 -3z m436 -350 l330 -201 148
-3 147 -3 0 -364 0 -363 -167 -4 -168 -5 -320 -102 c-176 -57 -345 -105 -376
-108 -104 -10 -128 3 -602 332 -242 167 -442 306 -445 309 -8 8 38 55 68 71
38 19 91 25 133 16 20 -5 135 -70 255 -144 278 -173 275 -171 347 -171 48 0
103 14 277 73 200 66 220 75 252 111 57 63 69 147 31 220 -8 15 -97 107 -199
206 l-186 179 0 45 c0 26 7 56 16 69 21 30 72 51 104 44 14 -3 174 -96 355
-207z m1215 -666 l0 -600 -220 0 -220 0 0 600 0 600 220 0 220 0 0 -600z"/>
</g>
</svg>
